<?xml version="1.0" encoding="utf-8"?>
<!-- Generator: Adobe Illustrator 25.0.1, SVG Export Plug-In . SVG Version: 6.00 Build 0)  -->
<svg version="1.1" id="Camada_1" xmlns="http://www.w3.org/2000/svg" xmlns:xlink="http://www.w3.org/1999/xlink" x="0px" y="0px"
	 viewBox="0 0 1920 1080" style="enable-background:new 0 0 1920 1080;" xml:space="preserve">
<style type="text/css">
	.st0{fill:#FDEA3D;}
	.st1{fill:#FE8A00;}
	.st2{fill:#FEFEFE;}
	.st3{fill:#FDFDFD;}
	.st4{fill:#FEEB3E;}
	.st5{fill:#C2B42F;}
	.st6{fill:#908523;}
	.st7{fill:#FDEB3E;}
	.st8{fill:#FCE93D;}
</style>
<path class="st0" d="M934.93,1066.93c16.38,0,32.76,0,49.14,0c-0.43,0.24-0.85,0.68-1.28,0.68c-15.53,0.04-31.05,0.04-46.58,0
	C935.78,1067.62,935.36,1067.17,934.93,1066.93z"/>
<path class="st0" d="M916.91,1065.94c2.67,0.33,5.51-0.91,8.03,0.83C922.25,1066.63,919.45,1067.53,916.91,1065.94z"/>
<path class="st0" d="M994.06,1066.77c2.53-1.74,5.36-0.5,8.03-0.83C999.55,1067.53,996.75,1066.63,994.06,1066.77z"/>
<path class="st0" d="M903.96,1064.93c1.99,0.26,4.15-0.73,5.97,0.81C907.9,1065.7,905.78,1066.39,903.96,1064.93z"/>
<path class="st0" d="M1009.07,1065.74c1.82-1.54,3.98-0.55,5.97-0.81C1013.21,1066.39,1011.09,1065.7,1009.07,1065.74z"/>
<path class="st0" d="M884.98,1062.92c1.67,0.21,3.52-0.62,4.97,0.85C888.25,1063.75,886.45,1064.3,884.98,1062.92z"/>
<path class="st0" d="M1029.05,1063.77c1.45-1.47,3.3-0.64,4.97-0.85C1032.55,1064.31,1030.75,1063.75,1029.05,1063.77z"/>
<path class="st0" d="M893.96,1063.93c1.67,0.2,3.52-0.62,4.98,0.83C897.23,1064.76,895.44,1065.29,893.96,1063.93z"/>
<path class="st0" d="M1020.06,1064.76c1.47-1.45,3.31-0.63,4.98-0.83C1023.56,1065.29,1021.77,1064.76,1020.06,1064.76z"/>
<g>
	<path class="st1" d="M1533.13,604.95c-2.94,16.5-5.24,33.11-9.14,49.45c-7.89,32.99-18.66,64.95-32.71,95.86
		c-16.17,35.61-36.26,68.84-59.76,100.01c-12.18,16.16-25.45,31.42-39.41,46.13c-43.57,45.92-93.52,83.31-149.49,112.73
		c-55.78,29.32-114.83,49.04-176.9,59.85c-44.31,7.71-88.93,10.43-133.82,8.46c-85.92-3.78-167.55-24.52-244.68-62.67
		c-16.86-8.34-33.05-17.87-49.23-27.48c-21.7-12.89-42-27.73-61.48-43.65c-12.85-10.5-25.34-21.49-36.74-33.67
		c-9.18-9.8-19.32-18.67-28.04-28.92c-17.67-20.8-34.34-42.36-49.07-65.36c-11.65-18.19-22.11-37.05-31.39-56.55
		c-10.29-21.61-19.27-43.74-26.3-66.66c-5.49-17.9-10.27-35.95-13.79-54.36c-2.11-11.01-4.2-22-5.33-33.16
		c-0.79-1.59,0.31-3.48-0.79-5.02c-0.09-1.33-0.18-2.66-0.26-3.99c-0.68-1.6,0.34-3.46-0.74-5.01c-0.09-1.66-0.18-3.33-0.26-4.99
		c-0.71-1.96,0.37-4.14-0.72-6.06c-0.08-2.31-0.17-4.62-0.25-6.93c-0.82-3.03,0.38-6.22-0.7-9.23c0-15.48,0-30.96,0-46.45
		c1.08-3.01-0.12-6.2,0.7-9.23c0.08-2.31,0.17-4.62,0.25-6.93c1.09-1.92,0-4.1,0.72-6.06c0.09-1.66,0.18-3.33,0.26-4.99
		c1.08-1.55,0.06-3.4,0.74-5.01c1.22-18.19,4.5-36.13,8.54-53.8c5.03-22.01,11.31-43.72,19.15-65c8.7-23.6,19.09-46.42,30.88-68.51
		c12.14-22.74,26.12-44.5,41.84-64.99c9.75-12.7,19.85-25.14,30.65-37.05c12.25-13.52,25.27-26.26,38.35-38.88
		c12.03-11.61,25.44-21.79,38.65-32.15c26.35-20.67,54.54-38.37,84.12-53.76c43.16-22.44,88.51-39.33,135.87-50.68
		c29.42-7.05,59.19-11.97,89.3-14.8c6.62-0.62,13.25-1.04,19.88-1.55c1.76-0.61,3.69,0.09,5.43-0.66
		c7.19-0.11,14.38-0.22,21.56-0.34c6.97-0.43,13.94-0.47,20.92,0.03c7.19,0.1,14.37,0.21,21.56,0.31c1.75,0.76,3.67,0.05,5.43,0.66
		c42.99,2.96,85.36,9.62,126.93,21.18c39.32,10.94,77.27,25.44,113.58,44.07c35.56,18.24,68.96,39.83,100.05,64.99
		c17.57,14.22,34.37,29.29,50.11,45.5c31.94,32.9,59.48,69.16,82.2,109.02c18.97,33.26,34.04,68.19,45.26,104.82
		c7.43,24.25,12.66,48.97,16.75,73.96c0.96,5.85,1.58,11.76,2.36,17.65c0.68,1.6-0.34,3.46,0.74,5.01c0.09,1.66,0.17,3.33,0.26,4.99
		c0.72,1.96-0.37,4.14,0.72,6.06c0.08,2.31,0.17,4.62,0.25,6.93c0.82,3.03-0.38,6.22,0.7,9.23c0,15.48,0,30.96,0,46.44
		c-1.08,3.01,0.12,6.2-0.7,9.23c-0.09,2.29-0.18,4.57-0.27,6.86c-1.05,1.95,0.03,4.15-0.73,6.14c-0.08,1.66-0.16,3.32-0.23,4.98
		c-1.08,1.55-0.06,3.4-0.74,5.01c-0.09,1.33-0.17,2.66-0.26,3.99C1532.82,601.47,1533.92,603.36,1533.13,604.95z"/>
	<path class="st2" d="M969.96,2.9c-6.97-0.01-13.94-0.02-20.92-0.03C956.02,1.6,962.99,1.55,969.96,2.9z"/>
	<path class="st3" d="M1536.86,517.28c-0.82-3.03-0.79-6.13-0.7-9.23C1537.75,511.02,1536.65,514.2,1536.86,517.28z"/>
	<path class="st3" d="M1536.16,572.95c-0.08-3.1-0.12-6.19,0.7-9.23C1536.65,566.8,1537.75,569.98,1536.16,572.95z"/>
	<path class="st3" d="M382.14,563.72c0.82,3.03,0.79,6.13,0.7,9.23C381.25,569.98,382.35,566.8,382.14,563.72z"/>
	<path class="st3" d="M382.84,508.05c0.08,3.1,0.12,6.19-0.7,9.23C382.35,514.2,381.25,511.02,382.84,508.05z"/>
	<path class="st3" d="M1535.91,501.12c-0.89-1.94-0.83-4-0.72-6.06C1536.59,496.94,1535.71,499.1,1535.91,501.12z"/>
	<path class="st3" d="M383.81,495.06c0.11,2.06,0.17,4.12-0.72,6.06C383.29,499.09,382.41,496.94,383.81,495.06z"/>
	<path class="st3" d="M1535.16,585.95c-0.09-2.08-0.11-4.16,0.73-6.14C1535.71,581.87,1536.61,584.05,1535.16,585.95z"/>
	<path class="st3" d="M383.09,579.88c0.89,1.94,0.83,4,0.72,6.06C382.41,584.06,383.29,581.91,383.09,579.88z"/>
	<path class="st3" d="M384.81,485.06c0.08,1.72,0.14,3.43-0.74,5.01C384.25,488.39,383.51,486.57,384.81,485.06z"/>
	<path class="st3" d="M384.08,590.93c0.88,1.58,0.82,3.29,0.74,5.01C383.51,594.43,384.25,592.61,384.08,590.93z"/>
	<path class="st3" d="M1534.19,595.94c-0.11-1.72-0.17-3.43,0.74-5.01C1534.76,592.61,1535.49,594.43,1534.19,595.94z"/>
	<path class="st3" d="M385.08,599.93c0.9,1.57,0.86,3.3,0.79,5.02C384.48,603.46,385.25,601.62,385.08,599.93z"/>
	<path class="st3" d="M1533.13,604.95c-0.06-1.73-0.1-3.45,0.79-5.02C1533.75,601.62,1534.52,603.46,1533.13,604.95z"/>
	<path class="st3" d="M1534.92,490.07c-0.88-1.58-0.82-3.29-0.74-5.01C1535.49,486.57,1534.76,488.39,1534.92,490.07z"/>
	<path class="st2" d="M927.48,3.21c-1.68,1.26-3.61,0.58-5.43,0.66C923.72,2.5,925.65,3.29,927.48,3.21z"/>
	<path class="st2" d="M996.95,3.88c-1.83-0.08-3.75,0.59-5.43-0.66C993.35,3.29,995.28,2.5,996.95,3.88z"/>
	<path class="st4" d="M922.92,14.28c3.35-0.07,6.69-0.14,10.04-0.21c5.61-1.27,11.34,0.23,16.96-0.79c6.39,0,12.79,0,19.18,0
		c5.62,1.02,11.35-0.47,16.95,0.79c3.35,0.07,6.69,0.14,10.04,0.21c2.26,0.91,4.76-0.33,7,0.78c2.33,0.07,4.66,0.14,6.99,0.21
		c1.89,0.93,4.08-0.32,5.95,0.82c1.68,0.06,3.37,0.12,5.05,0.18c1.55,0.87,3.43-0.26,4.95,0.82c19.79,2.22,39.41,5.44,58.93,9.42
		c26.57,5.42,52.53,12.97,78.02,22.07c29.18,10.41,57.31,23.22,84.51,38.15c23.67,12.99,46.36,27.49,67.92,43.66
		c12.94,9.7,25.39,20.07,37.47,30.9c11.66,10.46,22.56,21.65,33.49,32.81c12.87,13.14,24.45,27.43,35.71,41.98
		c15.13,19.55,28.63,40.19,40.71,61.72c12.25,21.83,22.82,44.47,31.58,67.96c8.08,21.68,15.02,43.71,20.02,66.29
		c3.2,14.45,6.23,28.95,7.62,43.73c0.48,5.07,1.3,10.12,1.96,15.17c1.04,1.54-0.06,3.43,0.8,5c0.06,2.01,0.13,4.02,0.19,6.02
		c1.15,2.22-0.13,4.72,0.79,6.96c0.07,3.33,0.15,6.66,0.22,9.99c1.03,10.09,0.27,20.21,0.4,30.31c0.05,4.28,0.57,8.61-0.4,12.87
		c-0.07,3.33-0.15,6.66-0.22,10c-0.92,2.24,0.36,4.74-0.79,6.96c-0.07,2.01-0.14,4.03-0.21,6.04c-0.83,1.56,0.26,3.43-0.79,4.96
		c-1.52,14.73-3.74,29.35-6.46,43.91c-4.56,24.37-11.33,48.13-19.53,71.5c-5.21,14.83-11.42,29.24-17.91,43.57
		c-12.16,26.83-27.01,52.07-43.73,76.25c-10.72,15.51-22.44,30.24-34.62,44.66c-13.23,15.66-27.64,30.18-42.53,44.12
		c-20.01,18.73-41.67,35.54-64.32,51.09c-26.83,18.41-55.06,34.28-84.51,47.98c-40.34,18.77-82.37,32.66-125.94,41.74
		c-16.66,3.47-33.37,6.8-50.4,8.07c-1.52,1.09-3.43-0.09-4.97,0.85c-1.34,0.05-2.67,0.1-4.01,0.16c-1.53,1.07-3.43-0.08-4.98,0.83
		c-1.67,0.06-3.34,0.11-5.02,0.17c-1.88,1.12-4.07-0.11-5.97,0.81c-2.33,0.07-4.65,0.14-6.98,0.21c-2.59,1.17-5.43-0.22-8.03,0.83
		c-3.33,0.05-6.66,0.11-9.99,0.16c-7.59,1.02-15.22,0.41-22.82,0.4c-8.77-0.01-17.56,0.61-26.31-0.4c-3.33-0.05-6.66-0.11-9.99-0.16
		c-2.6-1.05-5.44,0.34-8.03-0.83c-2.33-0.07-4.66-0.14-6.99-0.21c-1.9-0.92-4.09,0.31-5.97-0.81c-1.67-0.06-3.35-0.11-5.02-0.17
		c-1.56-0.9-3.45,0.24-4.98-0.83c-1.34-0.05-2.67-0.1-4.01-0.16c-1.54-0.94-3.45,0.24-4.97-0.85c-12.45-0.36-24.61-2.98-36.79-5.18
		c-28.03-5.05-55.54-12.25-82.49-21.46c-45.75-15.63-89.06-36.29-129.67-62.62c-22.85-14.82-44.49-31.17-65.05-49.03
		c-13.46-11.69-26.37-23.93-38.52-36.91c-26.37-28.15-49.71-58.66-69.47-91.85c-19.78-33.21-35.72-68.17-47.48-104.98
		c-7.81-24.44-13.92-49.31-17.54-74.76c-1.23-8.67-3.02-17.27-2.94-26.09c-1.05-1.53,0.04-3.4-0.79-4.97
		c-0.07-2.01-0.14-4.02-0.21-6.03c-1.15-2.22,0.13-4.72-0.79-6.96c-0.07-3.33-0.15-6.66-0.22-9.99c-1.01-11.74-0.23-23.5-0.41-35.25
		c-0.05-2.95-0.53-5.95,0.44-8.86c0.06-3.02,0.12-6.03,0.18-9.05c0.96-2.24-0.35-4.75,0.81-6.97c0.06-2.01,0.13-4.02,0.19-6.03
		c0.86-1.57-0.23-3.45,0.8-4.99c0.76-18.75,4.35-37.1,8.29-55.35c9.69-44.84,25.46-87.52,46.96-128.02
		c14.97-28.2,32.53-54.72,52.37-79.77c15.51-19.59,32.39-37.89,50.37-55.19c19.76-19.01,40.97-36.29,63.31-52.17
		c27.81-19.76,57.33-36.63,88.18-51.11c37.03-17.38,75.57-30.59,115.35-40.02c17.64-4.18,35.51-7.34,53.44-10.08
		c6.51-0.99,13.11-1.45,19.67-2.15c1.52-1.08,3.4,0.05,4.95-0.82c1.68-0.06,3.36-0.12,5.05-0.18c1.87-1.14,4.06,0.11,5.95-0.82
		c2.33-0.07,4.65-0.14,6.98-0.21C918.15,13.95,920.65,15.19,922.92,14.28z"/>
	<path class="st0" d="M393.05,517.98c-0.01,14.7-0.02,29.41-0.02,44.11c-1.26-1.41-0.81-3.14-0.81-4.74
		c-0.04-11.72-0.03-23.43,0-35.15C392.21,520.76,391.82,519.19,393.05,517.98z"/>
	<path class="st0" d="M1525.98,562.09c0-14.39,0-28.78,0-43.18c1.26,1.41,0.81,3.14,0.81,4.74c0.04,11.23,0.04,22.46,0,33.69
		C1526.79,558.95,1527.24,560.68,1525.98,562.09z"/>
	<path class="st0" d="M949.91,13.28c-5.58,1.75-11.31,0.39-16.96,0.79C938.54,12.35,944.25,13.42,949.91,13.28z"/>
	<path class="st0" d="M986.05,14.07c-5.65-0.4-11.37,0.95-16.96-0.8C974.75,13.42,980.46,12.35,986.05,14.07z"/>
	<path class="st0" d="M1003.09,15.06c-2.33-0.27-4.82,0.81-7-0.78C998.45,14.31,1000.89,13.56,1003.09,15.06z"/>
	<path class="st0" d="M1524.96,579.04c0.3-2.32-0.8-4.79,0.79-6.96C1525.71,574.43,1526.5,576.87,1524.96,579.04z"/>
	<path class="st0" d="M394.04,501.96c-0.31,2.32,0.81,4.8-0.81,6.97C393.31,506.58,392.49,504.13,394.04,501.96z"/>
	<path class="st0" d="M393.24,572.08c1.59,2.17,0.49,4.64,0.79,6.96C392.5,576.87,393.29,574.43,393.24,572.08z"/>
	<path class="st0" d="M922.92,14.28c-2.19,1.58-4.67,0.5-7.01,0.78C918.11,13.56,920.56,14.31,922.92,14.28z"/>
	<path class="st0" d="M1525.76,508.92c-1.59-2.17-0.49-4.64-0.79-6.96C1526.5,504.13,1525.71,506.57,1525.76,508.92z"/>
	<path class="st0" d="M1016.02,16.08c-1.98-0.27-4.14,0.72-5.95-0.82C1012.09,15.31,1014.21,14.6,1016.02,16.08z"/>
	<path class="st0" d="M908.93,15.26c-1.81,1.54-3.97,0.55-5.95,0.82C904.8,14.6,906.91,15.31,908.93,15.26z"/>
	<path class="st0" d="M394.25,585.08c1.4,1.47,0.6,3.3,0.79,4.96C393.68,588.56,394.21,586.78,394.25,585.08z"/>
	<path class="st0" d="M1523.96,590.04c0.19-1.67-0.61-3.49,0.79-4.96C1524.79,586.78,1525.32,588.56,1523.96,590.04z"/>
	<path class="st0" d="M395.03,490.94c-0.18,1.68,0.63,3.52-0.8,4.99C394.2,494.22,393.69,492.43,395.03,490.94z"/>
	<path class="st0" d="M1524.77,495.93c-1.43-1.48-0.62-3.32-0.8-5C1525.31,492.43,1524.81,494.22,1524.77,495.93z"/>
	<path class="st0" d="M897.93,16.26c-1.46,1.42-3.29,0.61-4.95,0.82C894.45,15.7,896.23,16.25,897.93,16.26z"/>
	<path class="st0" d="M1026.02,17.08c-1.66-0.21-3.49,0.61-4.95-0.82C1022.77,16.25,1024.55,15.7,1026.02,17.08z"/>
	<path d="M1215.01,610.23c-19.28-1.84-35.23-10.19-48.91-23.82c-18.56-18.51-29.06-40.87-34-66.3c-0.59-3.05-0.43-6.17-1.36-9.13
		c-0.69-1.61,0.34-3.47-0.74-5.02c-0.1-2.33-0.19-4.65-0.29-6.98c-0.34-5.31-0.39-10.61,0.03-15.92c0.09-2.31,0.19-4.61,0.28-6.92
		c1.05-1.58,0-3.47,0.77-5.09c2.48-23.04,10.45-44.15,24.07-62.75c14.64-20,33.77-33.53,59.15-36.53c5.3-0.35,10.61-0.35,15.91,0
		c30.84,4.89,52.05,22.85,66.99,49.33c10.16,18.01,15.03,37.6,17.31,57.97c0.3,8.31,0.46,16.62-0.08,24.93
		c-2.42,22.42-8.39,43.73-20.69,62.82c-15.24,23.63-35.74,39.76-64.52,43.43C1224.3,610.63,1219.65,610.63,1215.01,610.23z"/>
	<path d="M743.04,505.95c-0.09-2.32-0.17-4.65-0.26-6.97c-0.39-5.31-0.43-10.62,0.03-15.93c0.08-2.3,0.17-4.61,0.25-6.91
		c1.05-1.58,0-3.47,0.77-5.09c3.17-24.35,11.43-46.54,26.83-66.02c14.6-18.46,32.85-30.21,56.39-33.26c5.3-0.35,10.61-0.35,15.91,0
		c30.95,5.04,52.29,22.94,67.19,49.77c9.98,17.96,14.76,37.35,17.11,57.52c0.32,8.31,0.42,16.62-0.06,24.92
		c-2.52,22.37-8.33,43.72-20.68,62.78c-15.26,23.56-35.61,39.84-64.45,43.37c-1.22,1.19-2.78,1.16-4.32,1.23
		c-3.28-0.35-6.76,0.94-9.81-1.23c-15.21-1.16-28.49-6.9-40.4-16.38c-23.86-19-36.63-44.23-42.39-73.64
		c-0.6-3.05-0.49-6.16-1.34-9.14C743.07,509.37,744.13,507.5,743.04,505.95z"/>
	<path d="M1036.03,610.26c-14.67-1.5-27.62-7.36-38.76-16.7c-13.63-11.43-23.84-25.63-30.87-42.02
		c-5.3-12.36-9.14-25.14-10.62-38.56c-0.74-1.6,0.32-3.48-0.77-5.03c-0.1-1.99-0.19-3.99-0.29-5.98c-0.3-7.31-0.46-14.62,0.08-21.93
		c0.36-17.42,4.82-34.1,11.82-49.72c10.35-23.1,25.49-42.49,49.67-52.92c7.22-3.11,14.9-4.67,22.71-5.56
		c3.98-0.49,7.97-0.49,11.95,0c16.54,1.82,30.86,8.66,43.46,19.32c3.91,3.31,5.96,6.67,2.7,12.48
		c-6.4,11.43-12.13,23.23-18.28,34.81c-2.41,4.54-5.55,4.78-9.52,1.37c-18.92-16.28-41.74-14.16-56.66,6.76
		c-10.29,14.42-13.32,30.79-12.82,48.13c0.46,16.12,4.99,30.86,15.15,43.45c6.75,8.36,15.41,13.84,26.68,13.93
		c1.8,0.54,3.6,0.81,5.38-0.07c4.51,0.32,8.72-1.03,12.93-2.36c1.18-5.4,0.33-10.86,0.49-16.29c0.27-8.77-0.32-17.56,0.3-26.33
		c0.55-3.68,2.48-5.21,6.39-5.11c9.46,0.24,18.93,0.23,28.39,0.01c4.64-0.1,7.52,1.62,8.7,6.11c0.3,25.97,0.47,51.95-0.09,77.92
		c-1.26,4.96-5.52,7.2-9.18,9.88c-11.91,8.71-25.78,12.09-40.03,14.38c-2.34,0.73-4.86-0.36-7.16,0.7
		c-1.89,0.01-3.79,0.02-5.68,0.02C1040.18,609.88,1038.01,610.92,1036.03,610.26z"/>
	<path d="M613.08,606.24c-2.79-0.13-2.6-2.54-3.27-4.29c-0.44-1.47-0.25-2.97-0.25-4.46c-0.01-71.66-0.01-143.33,0-214.99
		c0-1.48-0.25-3,0.32-4.45c0.63-1.74,1.04-3.64,3.19-4.22c12.97-0.52,25.94-0.35,38.91-0.09c3.61,2.42,4.1,5.99,4.09,10
		c-0.06,53.59,0.02,107.17-0.16,160.76c-0.02,4.59,1.18,5.67,5.67,5.61c19.3-0.26,38.61-0.12,57.92-0.11c6.25,0,8.29,1.9,8.33,8.26
		c0.1,13.15,0.03,26.29,0.03,39.44c0,3.45-0.85,6.51-3.89,8.58c-22.98,0.44-45.96,0.15-68.94,0.16
		C641.04,606.45,627.06,606.77,613.08,606.24z"/>
	<path d="M726.7,705.88c-3.48,1.39-5.09,1.59-5.72-3.5c-1.63-13.05-4.41-25.95-6.77-38.9c-0.33-1.8,0.91-3.91-1.47-5.92
		c-4,9.48-7.86,18.69-11.78,27.88c-2.57,6.03-5.34,11.97-7.8,18.04c-1.29,3.18-3.31,4.59-6.74,4.54
		c-7.15-0.12-14.32-0.26-21.46,0.06c-3.45,0.15-5.25-1.46-6.4-4.13c-6.21-14.45-12.33-28.94-18.45-43.43
		c-0.18-0.44-0.1-0.99-0.14-1.48c-0.63-0.81-1.25-0.86-1.86,0.02c-2.37,14.37-4.85,28.73-7.04,43.13c-0.5,3.3-1.97,4.23-4.93,3.76
		c-7.2-1.04-14.44-0.2-21.66-0.48c-1.81-0.07-3.63,0.2-5.42-0.22c-4.03-2.02-1.79-5.5-1.48-8.12c1.24-10.55,2.89-21.05,4.5-31.56
		c1.12-7.32,2.47-14.6,3.63-21.9c1.27-7.98,2.46-15.98,3.63-23.97c0.41-2.81,0.11-5.84,2.71-7.89c12.65-0.26,25.3-0.86,37.94,0.31
		c4.74,7.32,7.37,15.62,10.97,23.47c4.62,10.07,8.92,20.3,13.47,30.41c0.46,1.03,0.48,2.99,2.28,2.73c1.51-0.22,1.6-2.01,2.09-3.13
		c7.51-16.71,14.92-33.46,22.35-50.21c0.64-1.45,0.99-3.11,2.88-3.53c12.31-0.59,24.62-0.49,36.94-0.06
		c2.81,2.2,2.54,5.52,3.01,8.52c2.6,16.51,5.22,33.02,7.65,49.55c1.43,9.73,2.53,19.51,4.56,29.14c0.56,1.73,0.23,3.51,0.28,5.26
		c0.05,1.63-0.73,2.37-2.4,2.03c-0.32-0.12-0.63-0.24-0.95-0.35C744.33,705.11,735.52,705.22,726.7,705.88z"/>
	<path d="M965.86,706.93c-1.19,0.55-2.33,1.08-3.74,1.07c-9.82-0.07-19.63-0.03-29.45-0.05c-1.6,0-3.39,0.22-3.86-2.02
		c-0.65-3.97-0.27-7.97-0.27-11.96c-0.04-24.82-0.03-49.65-0.01-74.47c0-1.83-0.21-3.67,0.22-5.48c0.46-0.72,0.17-1.87,1.28-2.21
		c7.92-0.72,15.87-0.3,23.8-0.28c16.38,0.04,32.76-0.38,49.14,0.23c8.62,1.46,16.94,3.66,24.63,8.15
		c20.32,11.86,20.51,34.05,0.34,46.03c-2.69,1.6-7.49,1.8-7.57,5.07c-0.06,2.41,3.49,4.91,5.44,7.36
		c6.35,8.02,12.69,16.05,19.04,24.07c0.91,1.15,1.84,2.2,1.25,3.93c-0.7,2.07-2.32,1.55-3.72,1.55
		c-10.99,0.03-21.98-0.13-32.97,0.11c-3.24,0.07-4.88-1.76-6.46-3.8c-6.55-8.49-12.91-17.14-19.52-25.58
		c-1.23-1.57-2.88-3.02-5.47-2.77c-3.63,0.36-7.3,0.24-10.95,0.33c-1.2,8.47-0.16,16.98-0.54,25.46
		C966.38,703.44,967.07,705.3,965.86,706.93z"/>
	<path d="M1266.94,611.8c5.38,4.87,7.95,11.59,11.46,17.65c13.96,24.1,27.67,48.35,41.44,72.56c2.52,4.42,1.64,5.94-3.34,5.96
		c-7.99,0.03-15.99-0.27-23.97,0.12c-4.2,0.2-6.9-1.13-8.67-4.76c-0.43-0.87-0.93-1.72-1.27-2.62c-2.32-6.15-5.75-9.43-13.31-8.96
		c-13.1,0.82-26.29,0.33-39.44,0.15c-2.91-0.04-4.82,0.77-5.7,3.45c-3.41,10.47-10.26,14.63-21.32,12.78
		c-5.18-0.87-10.64-0.34-15.95-0.09c-4.18,0.2-4.72-1.9-3.16-4.79c4.29-8,8.85-15.86,13.35-23.75
		c7.77-13.65,15.59-27.28,23.36-40.93c4.49-7.87,8.89-15.8,13.45-23.63c0.88-1.52,2.14-2.95,4.15-3.2
		C1247.66,611.4,1257.3,611.27,1266.94,611.8z"/>
	<path d="M855.01,611.97c4.69,3.75,6.62,9.38,9.46,14.32c14.55,25.26,28.87,50.65,43.29,75.99c2.42,4.26,1.74,5.65-3.01,5.67
		c-8.66,0.04-17.33-0.13-25.98,0.09c-3.33,0.08-5.61-1.33-6.62-4.05c-1.38-3.73-4.22-6.61-5.52-10.28c-0.71-2.01-2.1-1.74-3.56-1.74
		c-15.32,0-30.65,0.04-45.97-0.05c-2.29-0.01-3.73,0.59-4.6,2.8c-0.54,1.36-1.95,2.42-2.31,3.79c-2.34,8.88-8.48,10.4-16.61,9.58
		c-6.27-0.63-12.65-0.08-18.98-0.14c-4.26-0.04-5.01-1.21-2.99-4.76c10.26-18.05,20.57-36.06,30.84-54.1
		c6.25-10.97,12.48-21.95,18.69-32.93c1.14-2.01,2.21-4.02,4.84-4.33c3.97-1.35,8.07-0.68,12.12-0.84
		C843.7,612.01,849.42,610.92,855.01,611.97z"/>
	<path d="M1119.02,709.21c-14.94-1.11-28.93-5.05-41.62-13.34c-11.1-7.25-19.36-16.35-21.58-29.91c-0.53-3.64-0.42-7.29-0.06-10.94
		c2.42-14.72,11.26-24.54,23.67-32c13.17-7.92,27.66-10.79,42.61-12.29c4.31-0.29,8.62-0.46,12.93,0.08
		c11.3,1.16,22.32,3.36,32.78,8.09c4.04,1.83,4.16,3.56,1.15,6.36c-4.62,4.29-9.26,8.56-13.69,13.04c-2.59,2.62-5,1.64-7.71,0.49
		c-12.69-5.37-25.62-5.75-38.35-0.59c-9.39,3.81-16.57,10.1-17.11,21.23c-0.41,8.3,3.84,14.39,10.47,18.68
		c13.95,9.04,28.92,9.24,43.92,3.39c5.08-1.98,8.3-1.44,11.76,2.41c3.33,3.71,7.11,7,10.63,10.55c3.46,3.49,3.32,4.83-1.01,6.86
		c-9.77,4.57-20.23,6.61-30.85,7.92C1130.97,709.58,1124.99,709.63,1119.02,709.21z"/>
	<path class="st0" d="M609.88,378.05c-0.02,74.63-0.05,149.27-0.07,223.9c-1.32-1.61-0.75-3.52-0.75-5.3
		c-0.03-71.11-0.03-142.23,0-213.34C609.06,381.55,608.45,379.62,609.88,378.05z"/>
	<path class="st0" d="M613.08,606.24c16.48,0.08,32.97,0.21,49.45,0.21c20.48,0,40.96-0.11,61.44-0.17c-1.47,1.17-3.2,0.7-4.81,0.7
		c-33.76,0.03-67.52,0.03-101.28,0C616.26,606.97,614.52,607.46,613.08,606.24z"/>
	<path class="st0" d="M928.75,614.03c0.02,30.64,0.04,61.27,0.06,91.91c-1.2-1.25-0.8-2.82-0.8-4.27c-0.02-27.78-0.02-55.56,0-83.33
		C928.02,616.87,927.63,615.31,928.75,614.03z"/>
	<path class="st0" d="M1104.16,585.97c0.03-25.97,0.06-51.95,0.09-77.92c1.1,1.29,0.72,2.85,0.72,4.31
		c0.02,23.11,0.02,46.23,0,69.34C1104.98,583.16,1105.37,584.73,1104.16,585.97z"/>
	<path class="st0" d="M1002.97,611.78c-21.66-0.09-43.31-0.19-64.97-0.25c-2.66-0.01-5.31,0.19-7.97,0.3
		c1.07-1.1,2.46-0.83,3.76-0.83c21.8-0.01,43.59-0.01,65.39,0C1000.48,610.99,1001.87,610.72,1002.97,611.78z"/>
	<path class="st0" d="M1060.78,507.04c0.02,12.98,0.05,25.97,0.02,38.95c0,1.24,0.58,2.7-0.82,3.67c0-12.45-0.02-24.9,0.03-37.35
		C1060.02,510.54,1059.44,508.63,1060.78,507.04z"/>
	<path class="st0" d="M651.98,373.74c-12.97,0.03-25.94,0.06-38.91,0.09c2.1-1.53,4.51-0.82,6.75-0.75
		C630.54,373.41,641.29,372.1,651.98,373.74z"/>
	<path class="st0" d="M650,612.09c-12.64-1.16-25.29-0.56-37.94-0.31c2.6-1.62,5.46-0.71,8.19-0.75c8.23-0.14,16.47-0.09,24.7-0.02
		C646.67,611.03,648.63,610.3,650,612.09z"/>
	<path class="st0" d="M740.99,611.79c-12.31-0.43-24.62-0.51-36.94,0.06c1.9-1.58,4.16-0.8,6.24-0.82
		c8.64-0.09,17.28-0.06,25.92-0.02C737.83,611.01,739.57,610.5,740.99,611.79z"/>
	<path class="st0" d="M965.86,706.93c0.1-8.73,0.15-17.47,0.35-26.2c0.03-1.49-0.91-3.27,0.79-4.5c0,8.56,0.04,17.12-0.03,25.67
		C966.95,703.61,967.7,705.59,965.86,706.93z"/>
	<path class="st0" d="M1266.94,611.8c-9.64-0.52-19.28-0.38-28.92-0.06C1247.66,610.53,1257.3,610.43,1266.94,611.8z"/>
	<path class="st0" d="M599.08,705.23c9.01,0.77,18.07-0.51,27.07,0.7C617.13,705.57,608.07,706.91,599.08,705.23z"/>
	<path class="st0" d="M726.7,705.88c8.81-0.67,17.63-0.78,26.44,0.05C744.33,705.91,735.51,705.9,726.7,705.88z"/>
	<path class="st0" d="M927.22,503.98c0.02-8.31,0.04-16.62,0.06-24.92C928.42,487.36,928.58,495.67,927.22,503.98z"/>
	<path class="st0" d="M1314.15,503.98c0.03-8.31,0.05-16.62,0.08-24.93C1315.36,487.37,1315.58,495.68,1314.15,503.98z"/>
	<path class="st5" d="M838,611.44c-4,0.13-8.01,0.26-12.01,0.4c0.65-0.57,1.31-1.14,1.96-1.71c3.36,0.05,6.71,0.09,10.07,0.14
		C838.31,610.66,838.29,611.05,838,611.44z"/>
	<path class="st0" d="M954.81,480.04c-0.03,7.31-0.05,14.62-0.08,21.93C953.56,494.65,953.44,487.34,954.81,480.04z"/>
	<path class="st5" d="M838,611.44c0-0.39,0.01-0.78,0.01-1.17c1.36-0.05,2.71-0.09,4.07-0.14c2.48,1.48,5.2,0.4,7.79,0.71
		c1.76,0.21,3.71-0.51,5.15,1.14C849.34,611.79,843.67,611.62,838,611.44z"/>
	<path class="st0" d="M1119.02,709.21c5.97,0.01,11.95,0.02,17.92,0.03C1130.96,710.42,1124.99,710.46,1119.02,709.21z"/>
	<path class="st0" d="M742.81,483.04c-0.01,5.31-0.02,10.62-0.03,15.93C741.58,493.66,741.53,488.35,742.81,483.04z"/>
	<path class="st0" d="M842.97,371.76c-5.3,0-10.61,0-15.91,0C832.36,370.58,837.66,370.58,842.97,371.76z"/>
	<path class="st0" d="M1229.93,371.76c-5.3,0-10.61,0-15.91,0C1219.32,370.58,1224.63,370.58,1229.93,371.76z"/>
	<path class="st0" d="M1129.74,483.05c-0.01,5.31-0.02,10.61-0.03,15.92C1128.56,493.66,1128.5,488.35,1129.74,483.05z"/>
	<path class="st0" d="M1215.01,610.23c4.64,0,9.29,0,13.93,0C1224.3,611.45,1219.65,611.45,1215.01,610.23z"/>
	<path class="st0" d="M1134.96,610.8c-4.31-0.03-8.62-0.05-12.93-0.08C1126.34,609.56,1130.66,609.45,1134.96,610.8z"/>
	<path class="st0" d="M1050.97,371.84c-3.98,0-7.97,0-11.95,0C1043,370.53,1046.98,370.53,1050.97,371.84z"/>
	<path class="st0" d="M1055.75,655.02c0.02,3.65,0.04,7.29,0.06,10.94C1054.47,662.32,1054.55,658.67,1055.75,655.02z"/>
	<path class="st0" d="M754.09,706.29c5.06-1.16,1.06-4.96,2.12-7.29c1.45,1.75,0.74,3.82,0.76,5.74
		C756.98,706.76,755.96,707.47,754.09,706.29z"/>
	<path class="st0" d="M1047.79,610.92c2.39-0.23,4.78-0.46,7.16-0.7C1052.69,611.71,1050.18,610.73,1047.79,610.92z"/>
	<path class="st0" d="M1036.03,610.26c2.03,0.23,4.05,0.46,6.08,0.69C1040.08,610.77,1037.93,611.62,1036.03,610.26z"/>
	<path class="st6" d="M638.12,659.04c-0.01-0.82-0.65-2.1,0.62-2.17c0.87-0.05,1.39,1.09,1.24,2.15
		C639.36,659.03,638.74,659.03,638.12,659.04z"/>
	<path class="st0" d="M743.04,505.95c0.82,1.59,0.84,3.3,0.77,5.03C742.46,509.47,743.21,507.64,743.04,505.95z"/>
	<path class="st0" d="M1047.05,552.02c-1.78,0.84-3.57,0.67-5.38,0.07C1043.47,552.07,1045.26,552.04,1047.05,552.02z"/>
	<path class="st0" d="M1130,505.94c0.82,1.59,0.83,3.3,0.74,5.02C1129.44,509.45,1130.17,507.63,1130,505.94z"/>
	<path class="st0" d="M955.02,507.95c0.82,1.59,0.84,3.3,0.77,5.03C954.44,511.47,955.19,509.64,955.02,507.95z"/>
	<path class="st0" d="M743.83,471.04c0.09,1.75,0.02,3.48-0.77,5.09C743.2,474.41,742.44,472.56,743.83,471.04z"/>
	<path class="st0" d="M1130.8,471.04c0.09,1.75,0.02,3.48-0.77,5.09C1130.17,474.41,1129.41,472.56,1130.8,471.04z"/>
	<path class="st4" d="M1267.59,489.91c-0.45,18.45-3.97,32.82-13.26,45.27c-17.36,23.24-46.83,23.28-64.34,0.22
		c-18.3-24.11-17.74-66.6,1.17-90.32c17.02-21.34,45.19-21.26,62.04,0.25C1264.19,459.34,1267.63,475.67,1267.59,489.91z"/>
	<path class="st4" d="M789.75,484.58c-0.08-8.74,3.26-22.98,11.7-35.72c17.06-25.79,48.46-26.37,66.55-1.34
		c17.63,24.4,16.71,65.94-1.98,89.48c-16.18,20.38-44.23,20.81-60.92,0.87C793.75,524.31,789.82,508.28,789.75,484.58z"/>
	<path class="st7" d="M976.17,656.66c-4.13,0-9.65,1.62-12.04-0.42c-2.83-2.42-0.86-8.1-0.92-12.36
		c-0.14-10.73-0.04-10.78,10.92-10.71c4.32,0.03,8.64,0.23,12.95,0.46c3.04,0.17,5.85,1.2,8.42,2.81c7.9,4.95,7.55,13.8-0.75,18.14
		c-1.31,0.68-2.78,1.07-4.2,1.5C985.84,657.48,980.97,656.78,976.17,656.66z"/>
	<path class="st8" d="M1252.21,641.28c4.56,9.3,8.68,17.8,12.91,26.25c0.96,1.92,1.29,3.02-1.52,3c-8.27-0.07-16.54-0.02-25.53-0.02
		C1242.88,660.55,1247.39,651.23,1252.21,641.28z"/>
	<path class="st8" d="M840.05,641.27c4.7,9.51,8.83,17.96,13.07,26.36c1.04,2.07,0.97,2.93-1.66,2.9
		c-8.27-0.09-16.55-0.03-25.47-0.03C830.67,660.78,835.07,651.61,840.05,641.27z"/>
</g>
</svg>
